<mxfile host="app.diagrams.net" modified="2024-06-01T02:18:55.139Z" agent="Mozilla/5.0 (Windows NT 10.0; Win64; x64) AppleWebKit/537.36 (KHTML, like Gecko) Chrome/125.0.0.0 Safari/537.36 Edg/125.0.0.0" etag="iHcECccIoSyfRoK4NRqA" version="24.4.0" type="device">
  <diagram name="Страница — 1" id="0zhSxysmsWWDlv4oX8U4">
    <mxGraphModel dx="786" dy="703" grid="1" gridSize="10" guides="1" tooltips="1" connect="1" arrows="1" fold="1" page="1" pageScale="1" pageWidth="827" pageHeight="1169" math="0" shadow="0">
      <root>
        <mxCell id="0" />
        <mxCell id="1" parent="0" />
        <mxCell id="dcgPqHPb9Pbq1bNAR2TB-2" value="Parser" style="swimlane;fontStyle=1;align=center;verticalAlign=top;childLayout=stackLayout;horizontal=1;startSize=26;horizontalStack=0;resizeParent=1;resizeParentMax=0;resizeLast=0;collapsible=1;marginBottom=0;whiteSpace=wrap;html=1;" vertex="1" parent="1">
          <mxGeometry x="320" y="190" width="160" height="140" as="geometry" />
        </mxCell>
        <mxCell id="dcgPqHPb9Pbq1bNAR2TB-3" value="+ private driver: EdgeDriver" style="text;strokeColor=none;fillColor=none;align=left;verticalAlign=top;spacingLeft=4;spacingRight=4;overflow=hidden;rotatable=0;points=[[0,0.5],[1,0.5]];portConstraint=eastwest;whiteSpace=wrap;html=1;" vertex="1" parent="dcgPqHPb9Pbq1bNAR2TB-2">
          <mxGeometry y="26" width="160" height="26" as="geometry" />
        </mxCell>
        <mxCell id="dcgPqHPb9Pbq1bNAR2TB-4" value="" style="line;strokeWidth=1;fillColor=none;align=left;verticalAlign=middle;spacingTop=-1;spacingLeft=3;spacingRight=3;rotatable=0;labelPosition=right;points=[];portConstraint=eastwest;strokeColor=inherit;" vertex="1" parent="dcgPqHPb9Pbq1bNAR2TB-2">
          <mxGeometry y="52" width="160" height="8" as="geometry" />
        </mxCell>
        <mxCell id="dcgPqHPb9Pbq1bNAR2TB-5" value="Parser()&lt;div&gt;CloseBrowser()&lt;/div&gt;&lt;div&gt;GetProducts ()&lt;br&gt;&lt;/div&gt;&lt;div&gt;SaveHtmlToFile()&lt;/div&gt;" style="text;strokeColor=none;fillColor=none;align=left;verticalAlign=top;spacingLeft=4;spacingRight=4;overflow=hidden;rotatable=0;points=[[0,0.5],[1,0.5]];portConstraint=eastwest;whiteSpace=wrap;html=1;" vertex="1" parent="dcgPqHPb9Pbq1bNAR2TB-2">
          <mxGeometry y="60" width="160" height="80" as="geometry" />
        </mxCell>
      </root>
    </mxGraphModel>
  </diagram>
</mxfile>
